# xmcd
#
# Track frame offsets: 
#        150
#        30416
#        53188
#        79284
#        101348
#        110992
#        140447
#        162089
#        171942
#        180665
#
# Disc length: 2516 seconds
#
# Revision: 2
# Processed by: cddbd v1.5.2PL0 Copyright (c) Steve Scherf et al.
# Submitted via: ExactAudioCopy v0.99pb5
#
DISCID=8009d20a
DTITLE=Gabriel Tacchino - Poulenc - L'oeuvre pour piano [CD2]
DYEAR=2007
DGENRE=Piano
TTITLE0=Sonate pour 2 pianos, FP.156 - I. Prologue  .....  { Jacques F
TTITLE0=évrier, 2è piano }
TTITLE1=Sonate pour 2 pianos, FP.156 - II. Allegro molto
TTITLE2=Sonate pour 2 pianos, FP.156 - III. Andante lyrico
TTITLE3=Sonate pour 2 pianos, FP.156 - IV. Épilogue
TTITLE4=L'Embarquement pour Cythere - Valse-musette pour 2 pianos FP.1
TTITLE4=50
TTITLE5=Élégie  (en accord alternés) pour 2 pianos, FP.178
TTITLE6=Capriccio pour 2 pianos d'après le bal le Bal Masqué, FP.155
TTITLE7=Sonate pour piano à 4 mains  (Version 1918 révisée en 1939) FP
TTITLE7=8 - I. Prélude
TTITLE8=Sonate pour piano à 4 mains  (Version 1918 révisée en 1939) FP
TTITLE8=8  - II. Rustique
TTITLE9=Sonate pour piano à 4 mains  (Version 1918 révisée en 1939) FP
TTITLE9=8  - III. Final  (très vite)
EXTD=YEAR: 1973
EXTT0=
EXTT1=
EXTT2=
EXTT3=
EXTT4=
EXTT5=
EXTT6=
EXTT7=
EXTT8=
EXTT9=
PLAYORDER=
